<?xml version="1.0" encoding="UTF-8"?><svg id="Camada_1" xmlns="http://www.w3.org/2000/svg" viewBox="0 0 1183.41 201.39"><defs><style>.cls-1{fill:#ff6012;}.cls-2{fill:#00c9f9;}</style></defs><path class="cls-2" d="M79.23,195.26c-4.78,0-8.62-1.79-11.52-5.38-2.9-3.58-5.21-7.68-6.91-12.29L7.03,32.7c-1.2-3.24-1.32-6.61-.38-10.11.94-3.5,2.86-6.53,5.76-9.09,2.9-2.56,6.74-3.84,11.52-3.84,3.92,0,7.38,1.07,10.37,3.2,2.98,2.14,4.99,4.99,6.02,8.58l44.8,132.1h-11.78L118.14,21.44c1.19-3.58,3.28-6.44,6.27-8.58,2.98-2.13,6.44-3.2,10.37-3.2,4.78,0,8.62,1.24,11.52,3.71,2.9,2.48,4.82,5.5,5.76,9.09.94,3.58.81,7-.38,10.24l-54.02,144.9c-1.71,4.61-4.06,8.7-7.04,12.29-2.99,3.58-6.78,5.38-11.39,5.38Z"/><path class="cls-2" d="M190.84,43.97c-5.29,0-9.64-1.7-13.06-5.12-3.42-3.41-5.12-8.28-5.12-14.59s1.7-10.96,5.12-14.46c3.41-3.5,7.76-5.25,13.06-5.25,5.63,0,10.15,1.75,13.57,5.25,3.41,3.5,5.12,8.32,5.12,14.46s-1.71,11.18-5.12,14.59-7.94,5.12-13.57,5.12ZM191.1,193.98c-4.78,0-8.83-1.71-12.16-5.12s-4.99-7.42-4.99-12.03v-102.91c0-4.61,1.66-8.58,4.99-11.9s7.38-4.99,12.16-4.99,8.58,1.66,11.9,4.99,4.99,7.3,4.99,11.9v102.91c0,4.61-1.66,8.62-4.99,12.03s-7.3,5.12-11.9,5.12Z"/><path class="cls-2" d="M291.96,196.03c-11.44,0-21.34-1.79-29.7-5.38-8.36-3.58-14.76-8.02-19.2-13.31-4.44-5.29-6.74-10.32-6.91-15.1,0-3.75,1.36-7.3,4.1-10.62,2.73-3.33,6.74-4.99,12.03-4.99,3.92,0,7.08.77,9.47,2.3,2.39,1.54,4.1,2.99,5.12,4.35,4.26,4.78,8.62,8.32,13.06,10.62,4.44,2.3,9.3,3.46,14.59,3.46,5.63,0,9.73-1.11,12.29-3.33,2.56-2.22,3.84-4.95,3.84-8.19,0-2.73-1.02-5.08-3.07-7.04-2.05-1.96-4.95-3.75-8.7-5.38-3.76-1.62-8.36-3.28-13.82-4.99-5.63-1.88-11.14-3.88-16.51-6.02-5.38-2.13-10.16-4.78-14.34-7.94-4.18-3.16-7.47-7-9.86-11.52-2.39-4.52-3.58-10.02-3.58-16.51,0-7.85,2.09-14.89,6.27-21.12,4.18-6.23,10.02-11.14,17.54-14.72,7.51-3.58,16.13-5.38,25.86-5.38s17.88,1.58,24.96,4.74c7.08,3.16,12.67,7.17,16.77,12.03,4.1,4.86,6.14,10.03,6.14,15.49,0,4.1-1.11,7.51-3.33,10.24-2.22,2.73-5.63,4.1-10.24,4.1-3.93,0-7.21-.85-9.86-2.56-2.65-1.7-4.74-3.41-6.27-5.12-1.2-1.54-2.6-3.07-4.22-4.61-1.62-1.54-3.58-2.86-5.89-3.97-2.3-1.11-5.34-1.66-9.09-1.66-5.12,0-8.88,1.02-11.26,3.07-2.39,2.05-3.58,4.52-3.58,7.42,0,3.07,1.15,5.55,3.46,7.42,2.3,1.88,5.8,3.63,10.5,5.25,4.69,1.62,10.62,3.71,17.79,6.27,5.97,2.05,11.3,4.31,16,6.78,4.69,2.48,8.7,5.25,12.03,8.32,3.33,3.07,5.89,6.57,7.68,10.5,1.79,3.93,2.69,8.54,2.69,13.82,0,8.19-2.09,15.58-6.27,22.14-4.18,6.57-10.2,11.74-18.05,15.49-7.85,3.75-17.32,5.63-28.42,5.63Z"/><path class="cls-2" d="M424.4,193.98c-7.4,0-14.29-1.37-20.67-4.11-6.38-2.74-11.96-6.51-16.75-11.29-4.78-4.78-8.55-10.4-11.29-16.84-2.75-6.44-4.11-13.36-4.11-20.76v-72.53c0-3.83,1.24-6.99,3.73-9.47,2.49-2.49,5.65-3.73,9.47-3.73s6.99,1.24,9.47,3.73c2.49,2.49,3.73,5.65,3.73,9.47v74.26c0,5.1,1.15,9.66,3.44,13.68,2.3,4.02,5.42,7.21,9.38,9.57,3.95,2.36,8.48,3.54,13.59,3.54s9.63-1.18,13.59-3.54c3.95-2.36,7.08-5.55,9.38-9.57,2.3-4.02,3.44-8.58,3.44-13.68v-74.26c0-3.83,1.24-6.99,3.73-9.47,2.49-2.49,5.65-3.73,9.47-3.73s6.99,1.24,9.47,3.73c2.49,2.49,3.73,5.65,3.73,9.47v72.53c0,7.4-1.37,14.32-4.11,20.76-2.75,6.44-6.51,12.06-11.29,16.84-4.78,4.78-10.37,8.55-16.75,11.29-6.38,2.74-13.27,4.11-20.67,4.11Z"/><path class="cls-1" d="M467.96,196.54c-5.12,0-9.34-1.66-12.67-4.99-3.33-3.33-4.99-7.55-4.99-12.67l.77-147.2c0-6.48,1.75-11.35,5.25-14.59,3.5-3.24,8.06-4.86,13.7-4.86,5.12,0,9.22,1.11,12.29,3.33,3.07,2.22,5.29,4.95,6.66,8.19l51.71,125.7,51.2-125.7c1.36-3.24,3.62-5.97,6.78-8.19,3.16-2.22,7.3-3.33,12.42-3.33,5.63,0,10.15,1.66,13.57,4.99,3.41,3.33,5.12,8.15,5.12,14.46l.77,147.2c0,5.12-1.62,9.34-4.86,12.67-3.24,3.33-7.42,4.99-12.54,4.99s-9.39-1.66-12.8-4.99c-3.42-3.33-5.04-7.55-4.86-12.67l1.79-85.25-36.1,87.04c-2.39,5.8-5.34,9.9-8.83,12.29-3.5,2.39-7.38,3.58-11.65,3.58s-7.9-1.2-11.39-3.58c-3.5-2.39-6.44-6.48-8.83-12.29l-36.61-87.3,1.79,85.5c.17,5.12-1.41,9.34-4.74,12.67-3.33,3.33-7.64,4.99-12.93,4.99Z"/><path class="cls-1" d="M706.81,197.82c-7.85,0-15.23-1.54-22.14-4.61-6.91-3.07-12.54-7.55-16.9-13.44-4.35-5.89-6.53-13.18-6.53-21.89,0-12.46,4.05-22.23,12.16-29.31,8.1-7.08,21.2-11.99,39.3-14.72,5.8-.85,11.01-1.66,15.62-2.43,4.61-.77,8.32-1.96,11.14-3.58,2.82-1.62,4.22-4.22,4.22-7.81,0-2.56-.73-4.86-2.18-6.91-1.45-2.05-3.54-3.62-6.27-4.74-2.73-1.11-6.14-1.66-10.24-1.66-5.29,0-9.64,1.02-13.06,3.07-3.42,2.05-6.23,4.44-8.45,7.17-2.22,2.39-4.7,4.31-7.42,5.76-2.73,1.45-5.89,2.18-9.47,2.18-4.78,0-8.58-1.24-11.39-3.71-2.82-2.47-4.22-5.84-4.22-10.11s1.36-8.32,4.1-12.16c2.73-3.84,6.53-7.3,11.39-10.37,4.86-3.07,10.54-5.5,17.02-7.3,6.48-1.79,13.48-2.69,20.99-2.69,11.6,0,21.33,2.09,29.18,6.27,7.85,4.18,13.78,10.03,17.79,17.54,4.01,7.51,6.02,16.13,6.02,25.86v50.69c0,2.22.26,3.71.77,4.48.51.77,1.54,1.41,3.07,1.92,2.73,1.02,5.29,2.73,7.68,5.12,2.39,2.39,3.58,5.63,3.58,9.73,0,4.61-1.66,8.54-4.99,11.78-3.33,3.24-8.15,4.78-14.46,4.61-7-.17-12.42-1.92-16.26-5.25-3.84-3.33-6.27-7.72-7.3-13.18l-.26-1.79h-.77c-4.61,7-10.07,12.33-16.38,16-6.32,3.67-14.76,5.5-25.34,5.5ZM714.23,168.9c5.46,0,10.41-1.11,14.85-3.33,4.44-2.22,7.98-5.38,10.62-9.47,2.64-4.1,3.97-8.96,3.97-14.59v-8.96c0-.51-.13-.77-.38-.77s-.64.17-1.15.51c-2.05,1.37-4.52,2.39-7.42,3.07-2.9.68-5.93,1.24-9.09,1.66-3.16.43-6.36,1.07-9.6,1.92-7.85,1.54-13.27,3.58-16.26,6.14-2.99,2.56-4.48,5.8-4.48,9.73,0,4.27,1.58,7.68,4.74,10.24,3.16,2.56,7.89,3.84,14.21,3.84Z"/><path class="cls-1" d="M833.01,196.54c-4.61,0-8.58-1.66-11.9-4.99-3.33-3.33-4.99-7.38-4.99-12.16V24c0-4.61,1.66-8.58,4.99-11.9,3.33-3.33,7.3-4.99,11.9-4.99s8.83,1.66,12.16,4.99c3.33,3.33,4.99,7.3,4.99,11.9v155.39c0,4.78-1.66,8.83-4.99,12.16-3.33,3.33-7.38,4.99-12.16,4.99ZM837.36,115.9l64.26-52.22c3.07-2.56,6.74-3.84,11.01-3.84,4.78,0,8.79,1.62,12.03,4.86,3.24,3.24,4.86,7.17,4.86,11.78,0,5.46-2.05,9.9-6.14,13.31l-86.02,69.89v-43.78ZM915.44,196.54c-2.73,0-5.34-.68-7.81-2.05-2.48-1.36-4.48-3.16-6.02-5.38l-43.26-62.98,26.11-20.48,44.8,64c2.22,2.9,3.33,6.14,3.33,9.73,0,4.78-1.66,8.83-4.99,12.16-3.33,3.33-7.38,4.99-12.16,4.99Z"/><path class="cls-1" d="M1011.44,197.82c-12.29,0-23.26-2.86-32.9-8.58-9.64-5.72-17.24-13.74-22.78-24.06-5.55-10.32-8.32-22.48-8.32-36.48,0-13.14,2.52-25.04,7.55-35.71,5.03-10.66,12.2-19.11,21.5-25.34,9.3-6.23,20.35-9.34,33.15-9.34,9.56,0,18.13,1.79,25.73,5.38,7.59,3.58,14.04,8.28,19.33,14.08,5.29,5.8,9.3,12.12,12.03,18.94,2.73,6.83,4.1,13.57,4.1,20.22s-1.58,11.61-4.74,15.36c-3.16,3.76-8.32,5.63-15.49,5.63h-67.84c1.19,6.83,3.33,12.42,6.4,16.77,3.07,4.35,6.78,7.55,11.14,9.6,4.35,2.05,9.17,3.07,14.46,3.07,5.63,0,10.15-1.11,13.57-3.33,3.41-2.22,6.48-4.86,9.22-7.94,1.7-1.7,3.62-3.28,5.76-4.74,2.13-1.45,4.9-2.18,8.32-2.18,4.44,0,8.1,1.41,11.01,4.22,2.9,2.82,4.35,6.7,4.35,11.65,0,4.1-1.41,8.06-4.22,11.9-2.82,3.84-6.74,7.34-11.78,10.5-5.04,3.16-10.88,5.68-17.54,7.55s-14,2.82-22.02,2.82ZM982.77,114.37h54.02c-1.2-8.53-4.14-14.98-8.83-19.33-4.7-4.35-10.71-6.53-18.05-6.53s-13.14,2.09-17.92,6.27c-4.78,4.18-7.85,10.71-9.22,19.58Z"/><path class="cls-1" d="M1115.89,196.54c-4.61,0-8.58-1.66-11.9-4.99-3.33-3.33-4.99-7.38-4.99-12.16v-102.91c0-4.61,1.7-8.58,5.12-11.9,3.41-3.33,7.59-4.99,12.54-4.99s9.13,1.71,12.03,5.12c2.9,3.42,4.35,7.42,4.35,12.03v11.78l-4.86-2.82c1.88-4.1,4.35-8.28,7.42-12.54,3.07-4.26,6.82-7.81,11.26-10.62,4.44-2.82,9.3-4.22,14.59-4.22s9.86,1.5,13.18,4.48c3.33,2.99,4.99,7.13,4.99,12.42,0,4.61-1.75,8.58-5.25,11.9-3.5,3.33-7.98,4.99-13.44,4.99-6.49,0-11.78,1.2-15.87,3.58-4.1,2.39-7.13,5.68-9.09,9.86-1.96,4.18-2.94,9.09-2.94,14.72v59.14c0,4.78-1.66,8.83-4.99,12.16-3.33,3.33-7.38,4.99-12.16,4.99Z"/></svg>