<?xml version="1.0" encoding="UTF-8"?><svg id="Camada_1" xmlns="http://www.w3.org/2000/svg" viewBox="0 0 512 512"><defs><style>.cls-1{fill:#ff6012;}.cls-2{fill:#00c9f9;}</style></defs><path class="cls-1" d="M106.07,488c-10.6,0-19.34-3.44-26.23-10.33-6.89-6.89-10.33-15.63-10.33-26.23l1.59-304.63c0-13.42,3.62-23.48,10.86-30.2,7.23-6.71,16.69-10.07,28.34-10.07,10.6,0,19.07,2.3,25.43,6.89,6.36,4.59,10.94,10.25,13.77,16.95l107.02,260.13,105.96-260.13c2.82-6.71,7.5-12.36,14.04-16.95,6.53-4.59,15.1-6.89,25.7-6.89,11.66,0,21.01,3.44,28.08,10.33,7.06,6.89,10.6,16.87,10.6,29.93l1.59,304.63c0,10.6-3.36,19.34-10.07,26.23-6.71,6.89-15.36,10.33-25.96,10.33s-19.43-3.44-26.49-10.33c-7.07-6.89-10.42-15.63-10.07-26.23l3.71-176.42-74.7,180.13c-4.95,12.01-11.04,20.49-18.28,25.43-7.24,4.94-15.28,7.42-24.11,7.42s-16.34-2.48-23.58-7.42c-7.24-4.94-13.34-13.42-18.28-25.43l-75.76-180.66,3.71,176.95c.35,10.6-2.91,19.34-9.8,26.23-6.89,6.89-15.81,10.33-26.75,10.33Z"/><path class="cls-2" d="M255.74,408.09c-9.89,0-17.84-3.71-23.84-11.13-6.01-7.42-10.78-15.89-14.3-25.43L106.34,71.68c-2.47-6.71-2.74-13.68-.79-20.93,1.94-7.24,5.91-13.51,11.92-18.81,6-5.3,13.95-7.95,23.84-7.95,8.12,0,15.27,2.21,21.46,6.62,6.17,4.42,10.33,10.33,12.45,17.75l92.71,273.37h-24.37L336.27,48.37c2.47-7.42,6.8-13.33,12.98-17.75,6.18-4.41,13.33-6.62,21.46-6.62,9.88,0,17.83,2.57,23.84,7.68,6,5.12,9.97,11.39,11.92,18.81,1.94,7.42,1.67,14.49-.79,21.19l-111.79,299.86c-3.53,9.54-8.39,18.01-14.57,25.43-6.18,7.42-14.04,11.13-23.58,11.13Z"/></svg>